<svg xmlns="http://www.w3.org/2000/svg" viewBox="0 0 512 512" role="img" aria-label="ระบบขอเวร">
  <defs>
    <linearGradient id="bg" x1="96" y1="56" x2="430" y2="468" gradientUnits="userSpaceOnUse">
      <stop offset="0" stop-color="#ff8787"/>
      <stop offset="0.45" stop-color="#f8c4b4"/>
      <stop offset="1" stop-color="#bce29e"/>
    </linearGradient>
    <linearGradient id="card" x1="136" y1="112" x2="390" y2="408" gradientUnits="userSpaceOnUse">
      <stop offset="0" stop-color="#fffdf7"/>
      <stop offset="1" stop-color="#f7faee"/>
    </linearGradient>
    <filter id="shadow" x="-20%" y="-20%" width="140%" height="145%">
      <feDropShadow dx="0" dy="18" stdDeviation="18" flood-color="#3f4d37" flood-opacity="0.24"/>
    </filter>
  </defs>

  <rect width="512" height="512" rx="112" fill="url(#bg)"/>
  <circle cx="406" cy="98" r="54" fill="#fffdf7" opacity="0.28"/>
  <circle cx="86" cy="404" r="72" fill="#fffdf7" opacity="0.18"/>

  <g filter="url(#shadow)">
    <rect x="116" y="106" width="280" height="306" rx="44" fill="url(#card)"/>
    <path d="M116 152c0-25.4 20.6-46 46-46h188c25.4 0 46 20.6 46 46v38H116v-38z" fill="#3f8f84"/>
    <rect x="164" y="72" width="34" height="76" rx="17" fill="#3f4d37"/>
    <rect x="314" y="72" width="34" height="76" rx="17" fill="#3f4d37"/>
  </g>

  <g fill="#dfe9c0">
    <rect x="156" y="228" width="54" height="48" rx="14"/>
    <rect x="229" y="228" width="54" height="48" rx="14"/>
    <rect x="302" y="228" width="54" height="48" rx="14"/>
    <rect x="156" y="300" width="54" height="48" rx="14"/>
    <rect x="229" y="300" width="54" height="48" rx="14"/>
  </g>

  <rect x="294" y="292" width="126" height="126" rx="38" fill="#ff8787"/>
  <path d="M357 322v66M324 355h66" fill="none" stroke="#fffdf7" stroke-width="24" stroke-linecap="round"/>
  <path d="M176 356l40 38 88-96" fill="none" stroke="#3f8f84" stroke-width="24" stroke-linecap="round" stroke-linejoin="round"/>
</svg>
